<svg t="1753667414994" class="icon" viewBox="0 0 1024 1024" version="1.1" xmlns="http://www.w3.org/2000/svg" p-id="5311" width="200" height="200"><path d="M512 512m-400.695652 0a400.695652 400.695652 0 1 0 801.391304 0 400.695652 400.695652 0 1 0-801.391304 0Z" fill="#0B77E3" fill-opacity=".2" p-id="5312"></path><path d="M155.826087 211.478261m11.130435 0l690.086956 0q11.130435 0 11.130435 11.130435l0 534.260869q0 11.130435-11.130435 11.130435l-690.086956 0q-11.130435 0-11.130435-11.130435l0-534.260869q0-11.130435 11.130435-11.130435Z" fill="#FFFFFF" p-id="5313"></path><path d="M311.652174 189.328696c0-6.210783 5.064348-11.241739 11.130435-11.241739h378.434782a11.130435 11.130435 0 0 1 11.130435 11.241739v22.038261A11.241739 11.241739 0 0 1 701.217391 222.608696H322.782609a11.130435 11.130435 0 0 1-11.130435-11.241739v-22.038261z m393.015652 590.358261l23.151304 0.378434 24.486957 91.347479a11.108174 11.108174 0 0 1-7.880348 13.612521 11.119304 11.119304 0 0 1-13.634782-7.891478L704.667826 779.686957zM315.280696 779.130435l-26.245566 97.947826a11.141565 11.141565 0 1 1-21.504-5.732174l24.631653-91.91513L315.269565 779.130435z" fill="#40A0FF" p-id="5314"></path><path d="M305.608348 812.521739h-23.04l8.247652-30.820174 23.596522-2.025739L305.597217 812.521739z" fill="#000000" opacity=".1" p-id="5315"></path><path d="M589.913043 445.206261a11.130435 11.130435 0 0 1 11.019131-11.119304h44.744348a11.01913 11.01913 0 0 1 11.01913 11.119304V656.695652a11.130435 11.130435 0 0 1-11.01913 11.119305h-44.744348A11.01913 11.01913 0 0 1 589.913043 656.695652V445.217391z" fill="#40A0FF" p-id="5316"></path><path d="M601.043478 449.903304V652.02087h44.521739V449.892174h-44.521739z m-22.260869-13.545739c0-7.401739 5.042087-13.401043 11.097043-13.401043h66.849391c6.121739 0 11.097043 6.077217 11.097044 13.401043v229.197913c0 7.401739-5.042087 13.401043-11.097044 13.401044h-66.849391c-6.121739 0-11.097043-6.077217-11.097043-13.401044V436.357565zM467.478261 567.607652a11.130435 11.130435 0 0 1 11.097043-11.085913h66.849392c6.121739 0 11.097043 4.953043 11.097043 11.085913v100.262957a11.130435 11.130435 0 0 1-11.097043 11.085913h-66.849392a11.085913 11.085913 0 0 1-11.097043-11.085913v-100.262957zM489.73913 656.695652h44.52174v-77.913043h-44.52174v77.913043z m200.347827-277.926956c0-6.333217 5.042087-11.464348 11.097043-11.464348h66.849391c6.121739 0 11.097043 5.153391 11.097044 11.464348v288.723478c0 6.333217-5.042087 11.464348-11.097044 11.464348h-66.849391c-6.121739 0-11.097043-5.153391-11.097043-11.464348V378.768696zM712.347826 656.695652h44.521739V389.565217h-44.521739v267.130435z" fill="#005CB9" p-id="5317"></path><path d="M322.782609 556.521739a77.913043 77.913043 0 0 0 77.913043-77.913043h-77.913043v-77.913044a77.913043 77.913043 0 0 0 0 155.826087z" fill="#A6D2FF" p-id="5318"></path><path d="M422.956522 456.347826v22.26087a100.173913 100.173913 0 1 1-100.173913-100.173913h22.260869v77.913043h77.913044z m-100.173913 100.173913a77.913043 77.913043 0 0 0 77.913043-77.913043h-77.913043v-77.913044a77.913043 77.913043 0 0 0 0 155.826087z" fill="#005CB9" p-id="5319"></path><path d="M289.391304 189.217391a33.502609 33.502609 0 0 1 33.391305-33.391304h378.434782a33.391304 33.391304 0 0 1 33.391305 33.391304h122.37913A33.413565 33.413565 0 0 1 890.434783 222.597565V756.869565a33.357913 33.357913 0 0 1-33.446957 33.391305h-103.802435l20.21287 75.442087a33.413565 33.413565 0 0 1-23.596522 40.98226 33.402435 33.402435 0 0 1-40.904348-23.696695L684.04313 790.26087H335.36l-24.832 92.68313a33.402435 33.402435 0 0 1-40.915478 23.685565 33.413565 33.413565 0 0 1-23.596522-40.97113L266.217739 790.26087h-99.205565A33.413565 33.413565 0 0 1 133.565217 756.880696V222.608696a33.357913 33.357913 0 0 1 33.446957-33.391305H289.391304z m0 22.26087H167.012174a11.097043 11.097043 0 0 0-11.186087 11.119304V756.869565c0 6.13287 5.008696 11.119304 11.186087 11.119305h624.562087c6.121739-0.022261 9.817043 0 9.817043 0h55.596522A11.097043 11.097043 0 0 0 868.173913 756.880696V222.608696c0-6.13287-5.008696-11.119304-11.186087-11.119305H734.608696a33.502609 33.502609 0 0 1-33.391305 33.391305H322.782609a33.391304 33.391304 0 0 1-33.391305-33.391305z m417.725218 578.860522l23.284869 86.884174a11.130435 11.130435 0 0 0 13.645913 7.95826c5.943652-1.591652 9.46087-7.713391 7.846957-13.712695L730.156522 790.305391l-23.04 0.033392z m-417.892174 0.066782l-21.704348 81.007305c-1.613913 6.010435 1.914435 12.132174 7.846957 13.712695a11.141565 11.141565 0 0 0 13.657043-7.94713l23.262609-86.861913-23.062261 0.089043zM311.652174 189.328696v22.060521A11.130435 11.130435 0 0 0 322.782609 222.608696h378.434782c6.066087 0 11.130435-5.030957 11.130435-11.241739v-22.038261A11.130435 11.130435 0 0 0 701.217391 178.086957H322.782609c-6.066087 0-11.130435 5.030957-11.130435 11.241739z" fill="#005CB9" p-id="5320"></path><path d="M378.434783 333.913043c55.596522 0 89.043478 44.521739 89.043478 89.043479h-89.043478v-89.043479z" fill="#0B77E3" p-id="5321"></path><path d="M389.565217 345.043478v66.782609h66.782609a66.782609 66.782609 0 0 0-66.782609-66.782609z m0-22.260869a89.043478 89.043478 0 0 1 89.043479 89.043478v22.26087H367.304348V322.782609h22.260869z" fill="#005CB9" p-id="5322"></path><path d="M552.147478 776.069565l42.607305 42.607305L465.574957 947.867826l-42.629566-42.607304z" fill="#0B77E3" p-id="5323"></path><path d="M665.58887 795.069217a11.119304 11.119304 0 0 1 0 15.738435l-26.86887 26.88a11.130435 11.130435 0 0 1-15.738435 0L533.147826 747.842783a11.119304 11.119304 0 0 1 0-15.738435l26.86887-26.86887a11.119304 11.119304 0 0 1 15.738434 0l89.822609 89.822609z" fill="#40A0FF" p-id="5324"></path><path d="M851.222261 519.602087c56.509217 56.509217 56.509217 148.123826 0 204.633043-56.509217 56.509217-148.123826 56.509217-204.633044 0-56.509217-56.509217-56.509217-148.123826 0-204.633043 56.509217-56.509217 148.123826-56.509217 204.633044 0" fill="#FCFCFC" opacity=".7" p-id="5325"></path><path d="M606.898087 649.73913c-8.904348-45.657043 4.329739-94.775652 39.69113-130.137043 56.509217-56.509217 148.123826-56.509217 204.633044 0a144.517565 144.517565 0 0 1 39.69113 130.137043 144.005565 144.005565 0 0 0-39.69113-74.484869c-56.509217-56.509217-148.123826-56.509217-204.633044 0a144.005565 144.005565 0 0 0-39.69113 74.484869" fill="#000000" opacity=".1" p-id="5326"></path><path d="M643.250087 727.56313c59.213913 59.213913 154.523826 59.926261 212.880696 1.580522 58.345739-58.35687 57.633391-153.655652-1.580522-212.880695-59.213913-59.213913-154.523826-59.926261-212.880696-1.580522-58.345739 58.35687-57.633391 153.666783 1.580522 212.880695M617.071304 753.753043c-73.894957-73.894957-74.774261-192.812522-1.970087-265.627826 72.804174-72.793043 191.73287-71.92487 265.627826 1.970087 73.906087 73.906087 74.774261 192.823652 1.970087 265.627826-72.815304 72.804174-191.73287 71.92487-265.627826-1.970087" fill="#A6D2FF" p-id="5327"></path><path d="M659.411478 711.41287c50.16487 50.16487 130.893913 50.754783 180.313044 1.335652 49.441391-49.430261 48.840348-130.159304-1.335652-180.324174-50.153739-50.16487-130.893913-50.765913-180.313044-1.335652-49.430261 49.41913-48.829217 130.159304 1.335652 180.313043z m-16.64 16.840347c-59.291826-59.291826-60.104348-154.757565-1.613913-213.25913 58.490435-58.479304 153.956174-57.666783 213.248 1.625043 59.280696 59.280696 60.104348 154.757565 1.613913 213.248-58.490435 58.490435-153.967304 57.677913-213.25913-1.613913z m-25.711304 25.488696c73.906087 73.894957 192.834783 74.785391 265.638956 1.970087 72.815304-72.804174 71.92487-191.73287-1.958956-265.627826-73.906087-73.883826-192.823652-74.774261-265.627826-1.958957-72.815304 72.793043-71.92487 191.73287 1.958956 265.627826z m-64.912696 33.458087L434.086957 905.238261l31.488 31.488 118.049391-118.060522-31.47687-31.476869z m9.594435-72.236522a11.241739 11.241739 0 0 0-1.80313 1.469218l-15.59374 15.582608a11.152696 11.152696 0 0 0-0.055652 15.849739l78.669913 78.669914a11.264 11.264 0 0 0 15.838609-0.055653l15.582609-15.593739c0.556522-0.567652 1.057391-1.168696 1.469217-1.792a213.904696 213.904696 0 0 1-54.516869-39.602087 213.860174 213.860174 0 0 1-39.590957-54.516869z m-9.060174-20.435478c-28.527304-74.930087-13.089391-162.370783 46.681044-222.163478 81.563826-81.541565 214.572522-80.550957 297.115826 1.981217 82.532174 82.543304 83.522783 215.552 1.970087 297.115826-59.781565 59.770435-147.21113 75.208348-222.130087 46.681044a33.947826 33.947826 0 0 1-6.188522 8.481391l-15.593739 15.582609a33.502609 33.502609 0 0 1-47.315478 0.066782l-7.858087-7.858087-118.049392 118.060522a22.26087 22.26087 0 0 1-31.49913 0l-31.465739-31.476869a22.26087 22.26087 0 0 1 0-31.499131l118.060521-118.038261-7.858086-7.858087a33.391304 33.391304 0 0 1 0.055652-47.315478l15.582608-15.593739c2.56-2.56 5.442783-4.608 8.492522-6.166261z" fill="#005CB9" p-id="5328"></path></svg>